<?xml version="1.0" standalone="no"?><!DOCTYPE svg PUBLIC "-//W3C//DTD SVG 1.1//EN" "http://www.w3.org/Graphics/SVG/1.1/DTD/svg11.dtd"><svg t="1744009652345" class="icon" viewBox="0 0 1024 1024" version="1.1" xmlns="http://www.w3.org/2000/svg" p-id="7102" xmlns:xlink="http://www.w3.org/1999/xlink" width="200" height="200"><path d="M545.1 768.2v93.4h-64v-93.4h64m52-64h-168c-6.6 0-12 5.4-12 12v197.4c0 6.6 5.4 12 12 12h168c6.6 0 12-5.4 12-12V716.2c0-6.6-5.4-12-12-12zM832.2 925.6H192h640.2z" p-id="7103"></path><path d="M768.1 957.6H256c-17.7 0-32-14.3-32-32s14.3-32 32-32h512.1c17.7 0 32 14.3 32 32s-14.3 32-32 32zM751.7 567.2L713 524.3l-38.7 42.9L656 563c-27.7-6.4-53.9-17.2-77.8-32.3l-15.8-10 3-57.5-57.6 3-10-15.9c-15.1-24.1-26-50.3-32.3-77.7l-4.2-18.3 42.9-38.7-43-38.8 4.2-18.3c6.4-27.7 17.2-53.9 32.3-77.8l10-15.8 57.5 3-3-57.6 15.9-10c24.1-15.1 50.3-26 77.7-32.3l18.3-4.2 38.7 42.9 38.7-42.9 18.3 4.2c27.7 6.4 53.9 17.2 77.8 32.3l15.8 10-3 57.5 57.6-3 10 15.9c15.1 24.1 26 50.3 32.3 77.7l4.2 18.3-42.8 38.7 42.9 38.8-4.2 18.3c-6.4 27.7-17.2 53.9-32.3 77.8l-10 15.8-57.5-3 3 57.6-15.9 10c-24.1 15.1-50.3 26-77.7 32.3l-18.3 4.2z m-123.5-81.7c7.9 4 16 7.3 24.4 10.1l38.6-42.8 15.2 0.6c2.4 0.1 4.5 0.2 6.5 0.2s4.2-0.1 6.8-0.2l15-0.6 38.6 42.8c8.4-2.8 16.5-6.2 24.5-10.2l-3-57.5 11-10.2c3.3-3 6.5-6.2 9.5-9.5l10.2-11 57.5 3c4-7.9 7.3-16 10.1-24.5l-42.8-38.6 0.6-15.3c0.1-2.4 0.2-4.5 0.2-6.5 0-2.2-0.1-4.6-0.2-6.8l-0.6-14.9L893 255c-2.8-8.4-6.2-16.5-10.2-24.5l-57.5 3-10.2-11c-3-3.3-6.2-6.5-9.5-9.5l-11-10.2 3-57.5c-7.9-4-16-7.3-24.5-10.1L734.5 178l-15.2-0.6c-2.4-0.1-4.5-0.2-6.6-0.2-2 0-4.2 0.1-6.8 0.2l-15 0.6-38.6-42.8c-8.4 2.8-16.5 6.2-24.5 10.2l3 57.5L620 213c-3.3 3-6.5 6.2-9.5 9.5l-10.2 11-57.5-3c-4 7.9-7.3 16.1-10.1 24.5l42.8 38.6-0.6 14.9c-0.1 2.1-0.1 4.3-0.1 6.8 0 2.2 0.1 4.6 0.2 6.8l0.6 14.9-42.8 38.6c2.8 8.4 6.2 16.5 10.2 24.5l57.5-3 10.2 11c3 3.3 6.2 6.5 9.5 9.5l11 10.2-3 57.7z" p-id="7104"></path><path d="M713 411.7c-53.1 0-96.3-43.2-96.3-96.3s43.2-96.3 96.3-96.3 96.3 43.2 96.3 96.3-43.2 96.3-96.3 96.3z m0-128.6c-17.8 0-32.3 14.5-32.3 32.3 0 17.8 14.5 32.3 32.3 32.3s32.3-14.5 32.3-32.3c0-17.8-14.5-32.3-32.3-32.3z" p-id="7105"></path><path d="M882.8 765.9H139.9c-59.9 0-108.6-48.7-108.6-108.6V263.9c0-59.9 48.7-108.6 108.6-108.6h244.2v64H139.9c-24.6 0-44.6 20-44.6 44.6v393.4c0 24.6 20 44.6 44.6 44.6h742.9c24.6 0 44.6-20 44.6-44.6v-82.8h64v82.8c0 59.9-48.7 108.6-108.6 108.6z" p-id="7106"></path></svg>